<svg xmlns="http://www.w3.org/2000/svg" version="1.1" xmlns:xlink="http://www.w3.org/1999/xlink" xmlns:svgjs="http://svgjs.dev/svgjs" width="100%" height="100%" viewBox="0 0 1000 600"><rect width="1000" height="600" x="0" y="0" fill="pink"/><g><circle r="166.66666666666666" cx="314.17338053385413" cy="336.39560171439837" fill="black" transform="matrix(0.8474189893563717,0,0,0.8474189893563717,0,14.931978329549594)"/><path d="M315.3685279801647 261.39558688706677L318.2369450654696 261.39558688706677L318.2369450654696 279.7215849320705Q318.5784232899107 279.7215849320705 319.3752058136065 279.65328928718236Q320.1719883373023 279.5622284273314 320.55899699166883 279.5622284273314L320.55899699166883 279.5622284273314Q332.1009609777768 279.5622284273314 341.2070469628719 284.8437582986865L341.2070469628719 284.8437582986865Q340.09155142969774 290.9448359087002 338.24756901771605 296.5906092194591Q336.426351820697 302.2136173152553 333.85388252990765 307.5862080464615L333.85388252990765 307.5862080464615L331.85054361318674 306.47071251328725Q332.8066826416217 300.6200522678637 332.8066826416217 295.81659191072606L332.8066826416217 295.81659191072606Q332.8066826416217 291.65055757254504 332.1009609777768 288.30407097302265L332.1009609777768 288.30407097302265Q325.6128747133966 284.68440179394736 318.2369450654696 284.68440179394736L318.2369450654696 284.68440179394736L318.2369450654696 330.624605588752L336.58570832543614 344.87563015542565Q338.7256385319335 346.5602560626683 340.2964383643624 348.9733688487185Q341.8672381967913 351.36371641980594 342.8233772252263 354.09554221533443Q343.77951625366126 356.8046027959003 344.2120553379533 359.60472423631694Q344.66735963720805 362.4048456767337 344.66735963720805 364.9773149675231L344.66735963720805 364.9773149675231Q344.66735963720805 371.37434037205236 342.7323163653753 376.40545287881736Q340.82003830850533 381.4593306005451 337.3369604192065 385.1017649945831Q333.85388252990765 388.7441993886212 328.98212652788175 391.02072088489496Q324.0876053108932 393.2972423811687 318.2369450654696 394.18508576471544L318.2369450654696 394.18508576471544L318.2369450654696 394.66315527893295Q318.2369450654696 403.7009456191399 314.64004110135704 411.3955882765451L314.64004110135704 411.3955882765451L311.7716240160521 411.3955882765451L311.7716240160521 394.82251178367216L309.92764160407035 394.82251178367216Q296.6327560658316 394.82251178367216 283.67934875203383 389.7003384170561L283.67934875203383 389.7003384170561Q286.00140067823304 377.7713657765816 291.1235740448491 366.98065388424396L291.1235740448491 366.98065388424396L293.1952086064582 368.0961494174182Q292.2390695780232 372.3304794004874 292.2390695780232 378.49985265538925Q292.2390695780232 384.64646069532847 293.035852101719 385.94407794820444L293.035852101719 385.94407794820444Q301.4362164229692 390.26946879112467 309.44957208985284 390.26946879112467L309.44957208985284 390.26946879112467L311.7716240160521 390.26946879112467L311.7716240160521 340.55023931250554Q310.81548498761714 340.00387415339986 308.4934330614179 338.52413518082193Q306.17138113521867 337.044396208244 303.28019883495097 334.92723121670934Q300.411781749646 332.78730101021205 297.2701820847882 329.9644143548325Q294.15134763489317 327.11876248449033 291.60164355906653 323.79504109993064Q289.0291742682772 320.47131971537095 287.3445483610346 316.7150592465193Q285.68268766875474 312.93603356270484 285.68268766875474 308.7927644394865L285.68268766875474 308.7927644394865Q285.68268766875474 303.0331650539139 287.6860265854757 298.29800034166453Q289.66660028723385 293.58560084437784 293.1496781765327 289.9659316653025Q296.6327560658316 286.3690277011899 301.39068599304375 283.933149700177Q306.17138113521867 281.4972716991641 311.7716240160521 280.3817761659899L311.7716240160521 280.3817761659899L311.7716240160521 277.6499503704614Q311.7716240160521 271.6399336202987 315.3685279801647 261.39558688706677L315.3685279801647 261.39558688706677ZM332.26031748251603 366.98065388424396L332.26031748251603 366.98065388424396Q332.26031748251603 363.36098470516873 331.6456566785221 360.6974545545284Q331.0537610894909 358.0111591889253 329.482961257062 355.52975075798696Q327.93492663959586 353.0483423270485 325.2031008440673 350.56693389611013Q322.4940402635016 348.08552546517177 318.2369450654696 344.9666910152767L318.2369450654696 344.9666910152767L318.2369450654696 388.9718515382486Q324.72503132984986 386.6497996120493 328.4812917987016 381.18614802099233Q332.26031748251603 375.6997312149725 332.26031748251603 366.98065388424396ZM296.9514690753099 304.8543822509329L296.9514690753099 304.8543822509329Q296.9514690753099 310.4546251317664 300.5256078244597 315.1897898440158Q304.0769813586468 319.9021893413025 311.7716240160521 326.0032669513162L311.7716240160521 326.0032669513162L311.7716240160521 285.663306037345Q305.1924768918209 287.5072884493268 301.0719729835654 292.4245748812782Q296.9514690753099 297.3418613132295 296.9514690753099 304.8543822509329Z " fill="white" transform="matrix(0.8474189893563717,0,0,0.8474189893563717,0,14.931978329549594)"/><path d="M572.6174529373827 365.9108341948806L572.6174529373827 365.9108341948806Q580.1819566663314 369.76149888377694 587.5314486613825 369.76149888377694L587.5314486613825 369.76149888377694Q592.0076020307085 369.76149888377694 595.8191736770781 368.41278891660005Q599.6307453234476 367.0836254706865 602.4063513428551 364.38620553633274Q605.2015038835261 361.7083321232424 606.7652255846008 357.75993482802886Q608.3484938069389 353.8115375328153 608.3484938069389 348.5926163554786L608.3484938069389 348.5926163554786Q608.3484938069389 344.6637655815285 607.5275399138748 341.75133391327694Q606.7065860208104 338.8389022450254 604.3610034691985 336.0437497043544Q602.0349674388499 333.2681436849469 597.8324653672117 330.10160724027065Q593.649509816837 326.9350707955945 586.8473204171622 322.53710351132196L586.8473204171622 322.53710351132196Q575.9794545946933 315.4612628139591 571.0146381937811 308.93272471197236Q566.0302752716057 302.4041866099857 566.0302752716057 295.6801832953646L566.0302752716057 295.6801832953646Q566.0302752716057 289.07345910832413 568.7667882484864 284.0890961861486Q571.5228477466305 279.1242797852366 576.0185476372201 275.78182464918945Q580.5142475278099 272.4589160344058 586.2022852154689 270.7583686844871Q591.8707763818645 269.0773678558318 597.6956397183677 269.0773678558318L597.6956397183677 269.0773678558318Q608.2116681580949 269.0773678558318 616.5384862163174 273.8858120866364L616.5384862163174 273.8858120866364Q614.6033806112375 284.5386661752076 609.794936380433 294.5855781046123L609.794936380433 294.5855781046123L607.9380168604068 293.60825204144066Q608.3484938069389 291.008564713404 608.6025985833635 288.6238891192652Q608.8371568385247 286.25876004638974 608.8371568385247 284.16728227120234Q608.8371568385247 282.07580449601494 608.622145104627 280.316617582306Q608.4266798919925 278.557430668597 608.0748425092509 276.99370896752237L608.0748425092509 276.99370896752237Q602.582270034226 273.7489864377924 596.2687436661371 273.7489864377924L596.2687436661371 273.7489864377924Q592.2812533283967 273.7489864377924 588.6651468946616 274.96087075612525Q585.0685869821898 276.15320855319464 582.3125274840456 278.4987911048067Q579.5564679859016 280.82482713515526 577.9145601997732 284.2259218349926Q576.2726524136448 287.6465630560935 576.2726524136448 292.044530340366L576.2726524136448 292.044530340366Q576.2726524136448 295.1328806999885 577.3672576043971 297.8107541130788Q578.4618627951493 300.48862752616924 580.7683523042344 303.16650093925955Q583.0748418133196 305.84437435235 586.5345760769472 308.73725949933805Q590.0138568618383 311.6105981250627 594.7441150075892 315.12897195248075L594.7441150075892 315.12897195248075Q597.5588140695237 317.1813566851412 600.0412222699797 318.86235751379655Q602.5040839491724 320.54335834245177 604.6346547668866 322.0679870009996Q606.7652255846008 323.573069138284 608.6025985833635 325.01951171177797Q610.4204250608628 326.46595428527206 612.0036932832008 328.10786207140046L612.0036932832008 328.10786207140046Q619.6268365759399 336.16102883193497 619.6268365759399 346.7943363992428L619.6268365759399 346.7943363992428Q619.6268365759399 353.9483631816593 617.1248818542205 359.10864479520575Q614.6033806112375 364.2493798874887 610.2835994120187 367.552741981009Q605.9442716915366 370.85610407452924 600.1780479188237 372.40027925434043Q594.4118241461109 373.9444544341516 587.9419256079145 373.9444544341516L587.9419256079145 373.9444544341516Q576.3312919774351 373.9444544341516 564.1733557515795 369.2728358521911L564.1733557515795 369.2728358521911Q566.3039265692937 358.20950481708786 570.8973590662006 348.5926163554786L570.8973590662006 348.5926163554786L572.7542785862267 349.6285819824406Q571.9333246931626 353.4597001500735 571.9333246931626 359.030458710152Q571.9333246931626 364.6012172702305 572.6174529373827 365.9108341948806ZM696.1710138435449 364.2493798874887L696.1710138435449 323.1625921917519Q696.1710138435449 317.396368419039 695.0764086527926 313.7216224215136Q693.9818034620403 310.0468764239881 692.0857908994873 307.93585212753726Q690.1897783369343 305.84437435235 687.6878236152148 305.0234204592857Q685.1858688934954 304.2024665662216 682.3711698315609 304.2024665662216L682.3711698315609 304.2024665662216Q678.9309820891967 304.2024665662216 675.9403643358913 304.80840872538795Q672.949746582586 305.4338974058178 669.9591288292808 306.70442128794105Q666.9685110759755 307.9749451700642 663.880160716353 309.87095773261717Q660.7918103567305 311.74742377390675 657.2147969655223 314.3080180594166L657.2147969655223 314.3080180594166L657.2147969655223 361.7083321232424Q657.2147969655223 363.9170890260104 657.5470878270006 365.2462524719238Q657.8989252097424 366.5949624391007 658.9935304004946 367.4941024172187Q660.1076821125104 368.3736958740731 662.1014272813806 369.0773706395568Q664.0756259289873 369.76149888377694 667.3203484587173 370.5824527768411L667.3203484587173 370.5824527768411L666.7730458633412 372.2243605629695Q662.7855555256007 371.6770579675934 659.9904029849298 371.40340666990534Q657.2147969655223 371.1297553722173 654.4000979035878 371.1297553722173Q651.5853988416534 371.1297553722173 646.3469311430533 372.2243605629695L646.3469311430533 372.2243605629695L645.9364541965213 371.54023231874936Q647.324257206225 369.54648714987917 647.324257206225 364.2493798874887L647.324257206225 364.2493798874887L647.324257206225 281.9389788471709Q647.324257206225 277.3259998290007 646.874687217166 274.2376494693782Q646.425117228107 271.14929910975576 645.2914189948278 269.2923795897296Q644.1577207615487 267.4354600697034 642.1639755926785 266.6731457404295Q640.1702304238083 265.93037793241905 637.941926999777 265.93037793241905Q635.7136235757455 265.93037793241905 635.2249605441598 265.9890174962094L635.2249605441598 265.9890174962094L634.9513092464716 264.75758665661306Q646.1514659304189 261.3955849993025 655.7683543920282 261.3955849993025L655.7683543920282 261.3955849993025Q657.2147969655223 265.0312379543011 657.2147969655223 269.21419350467585L657.2147969655223 269.21419350467585L657.2147969655223 309.48002730734856Q661.9450551112731 306.25485129888204 665.8348128426964 304.16337352369464Q669.7245705741195 302.07189574850736 673.125665273957 300.84046490891103Q676.5267599737944 299.58948754805124 679.5760172908899 299.1203710377289Q682.644821129249 298.63170800614307 685.7918110526617 298.63170800614307L685.7918110526617 298.63170800614307Q690.1311387731439 298.63170800614307 693.7276986856157 299.7654062394222Q697.3438051193508 300.8991044727013 699.963038968651 303.4792452794745Q702.5627262966875 306.05938608624774 704.1459945190256 310.2423416366224Q705.7292627413638 314.44484370826063 706.0029140390518 320.6215444275055L706.0029140390518 320.6215444275055L706.0029140390518 363.3697864306342Q706.0029140390518 365.0116942167626 706.7847748895892 366.1062994075149Q707.5861822613899 367.22045111953065 708.8567061435131 367.96321892754105Q710.1272300256362 368.7255332568149 711.7691378117647 369.2337428096642Q713.4305921191565 369.76149888377694 715.2093255541289 370.30880147915303L715.2093255541289 370.30880147915303L714.583836873699 371.95070926528143Q710.7527187060662 371.1297553722173 705.5924370925197 371.1297553722173Q700.4321554789733 371.1297553722173 695.2132343016367 372.2243605629695L695.2132343016367 372.2243605629695L694.8027573551045 371.54023231874936Q696.1710138435449 369.54648714987917 696.1710138435449 364.2493798874887L696.1710138435449 364.2493798874887ZM762.7660117880623 299.667673633105L762.7660117880623 299.667673633105Q778.5791474901798 299.667673633105 787.5705472713591 309.34320165850454Q796.5814935738019 319.0382762051674 796.5814935738019 336.3564940445694L796.5814935738019 336.3564940445694Q796.5814935738019 346.3838594527106 791.9685145556316 355.0429683724116Q787.3750820587248 363.7020772921126 779.4587409470344 368.8232658631321Q771.5619463566072 373.9444544341516 762.3555348415301 373.9444544341516L762.3555348415301 373.9444544341516Q746.4837595756222 373.9444544341516 737.5119063157064 364.3666590150694Q728.5400530557905 354.7693170747236 728.5400530557905 337.17744793763353L728.5400530557905 337.17744793763353Q728.5400530557905 326.7396055829601 733.1530320739607 318.11958970578604Q737.7464645708676 309.48002730734856 745.6237126400312 304.5738504702267Q753.4814141879315 299.667673633105 762.7660117880623 299.667673633105ZM761.3977552996218 304.3979317788559L761.3977552996218 304.3979317788559Q755.9638223883875 304.3979317788559 751.976332050647 305.981200001194Q747.9888417129066 307.564468223532 745.5846195975043 310.2423416366224Q743.1803974821021 312.9202150497128 741.733954908608 317.0445310362972Q740.2875123351139 321.1688470228816 739.7793027822646 325.5081747433639Q739.2710932294153 329.8279559425826 739.2710932294153 335.53554015150513L739.2710932294153 335.53554015150513Q739.2710932294153 344.6051260177382 741.421210568393 351.3682223748862Q743.5908744286342 358.1508652532976 747.2265273836327 361.88425081461327Q750.8817268598948 365.63718289719253 755.0060428464792 367.376823289638Q759.1303588330636 369.1360102033471 763.7237913299705 369.1360102033471L763.7237913299705 369.1360102033471Q769.0795381561512 369.1360102033471 773.1061215364184 367.45500937469177Q777.1327049166857 365.77400854603655 779.536927032088 363.0570420904193Q781.9411491474904 360.3400756348021 783.3875917209845 356.17666660569074Q784.814487773215 352.03280409784287 785.3422438473277 347.77166246241444Q785.850453400177 343.510520826986 785.850453400177 338.07658791575153L785.850453400177 338.07658791575153Q785.850453400177 330.45344462301244 784.4040108266829 324.47220911640187Q782.9771147744523 318.4909736097913 780.5924391803135 314.77713456973896Q778.227310107438 311.0632955296867 774.9630410564446 308.6590734142843Q771.6987720054512 306.25485129888204 768.395409911931 305.3361647995007Q765.0920478184108 304.3979317788559 761.3977552996218 304.3979317788559ZM829.3610097325796 372.49801186065764L829.3610097325796 397.86939646059403Q829.3610097325796 403.3619689356188 831.9020574968259 405.942109742392Q834.4431052610723 408.5222505491652 840.8934572780053 409.6754953037078L840.8934572780053 409.6754953037078L840.3461546826292 411.39558917488995Q832.7230113898902 410.2227978990839 827.6409158613974 410.2227978990839L827.6409158613974 410.2227978990839Q823.7120650874474 410.2227978990839 818.4931439101107 411.39558917488995L818.4931439101107 411.39558917488995L818.0826669635786 410.6332748456161Q819.4509234520189 408.65907619800925 819.4509234520189 403.3619689356188L819.4509234520189 403.3619689356188L819.4509234520189 320.21106748097344Q819.4509234520189 310.4573533705202 817.1639804641973 307.1148982344731Q814.8574909551121 303.7919896196894 807.3711733112171 304.26110613001185L807.3711733112171 304.26110613001185L807.0779754922656 303.0296752904155Q818.4345043463204 299.667673633105 827.9145671590855 299.667673633105L827.9145671590855 299.667673633105Q829.3610097325796 303.2446870243133 829.3610097325796 307.5058286597417L829.3610097325796 307.5058286597417L829.3610097325796 311.47377247621876Q835.4008848029805 305.29707175697376 841.5189459584352 302.48237269503943Q847.6370071138898 299.667673633105 854.9864991089407 299.667673633105L854.9864991089407 299.667673633105Q861.1631998281856 299.667673633105 866.3625744842589 302.52146573756625Q871.5424026190688 305.3752578420275 874.9044042763792 310.0468764239881Q878.2859524549532 314.7184950059487 880.1428719749795 320.5824513849787Q881.9997914950056 326.46595428527206 881.9997914950056 332.7208410895708L881.9997914950056 332.7208410895708Q881.9997914950056 351.270489768569 872.2069843420255 362.6074721013603Q862.4141771890454 373.9444544341516 844.1186332864718 373.9444544341516L844.1186332864718 373.9444544341516Q835.8113617495126 373.9444544341516 829.3610097325796 372.49801186065764L829.3610097325796 372.49801186065764ZM829.3610097325796 316.9858914725069L829.3610097325796 316.9858914725069L829.3610097325796 364.67940335528425Q832.5861857410462 366.4581367902567 838.0787582160708 367.5918350235358Q843.5713306910957 368.7255332568149 849.0834496873838 368.7255332568149L849.0834496873838 368.7255332568149Q854.4391965135646 368.7255332568149 858.3875938087781 367.10317199195Q862.3359911039915 365.5003572483485 864.740213219394 362.78339079273127Q867.1444353347963 360.06642433711403 868.6299709508171 355.8052827016855Q870.0959600455747 351.54414106625705 870.6237161196874 346.97025509061365Q871.1319256725367 342.39636911497024 871.1319256725367 336.3564940445694L871.1319256725367 336.3564940445694Q871.1319256725367 320.69973051255926 865.8348184101462 312.6074707094978Q860.5572576690192 304.5347574276999 851.8199626642645 304.5347574276999L851.8199626642645 304.5347574276999Q846.38602975303 304.5347574276999 840.522073374 307.74038691490296Q834.6385704737066 310.92646988084255 829.3610097325796 316.9858914725069ZM895.3305189966673 319.4487531516996L900.4126145251598 301.8568840146096L901.5072197159121 300.8991044727013Q912.4337251021714 301.72005836576545 941.7730535185847 301.72005836576545L941.7730535185847 301.72005836576545L950.6471741721834 301.3095814192334L951.3313024164036 303.3033265881036L909.4040143063391 366.0476598437246L930.2992455369493 366.653602002891Q934.2867358746898 366.653602002891 937.8832957871615 365.87174115235365Q941.4994022208966 365.0898803018163 944.4900199742019 363.3697864306342Q947.4806377275072 361.64969255945215 949.7480341940654 358.9913656676252Q952.0154306606239 356.3525852970617 953.3250475852739 352.7169323420631L953.3250475852739 352.7169323420631L955.0451414564559 353.53788623512725L948.2429520567812 371.1297553722173L947.1288003447655 372.08753491412546Q945.7605438563252 371.95070926528143 943.0435774007079 371.85297665896434Q940.3266109450907 371.75524405264713 936.8277836389361 371.63796492506657Q933.3289563327816 371.54023231874936 929.2632799099874 371.4815927549591Q925.2171500084567 371.40340666990534 914.2124585371437 371.3056740635881Q903.2273135870942 371.20794145727103 901.1358358119069 371.1688484147441Q899.024811515456 371.1297553722173 898.4188693562896 371.1297553722173L898.4188693562896 371.1297553722173L897.7347411120694 364.9530546529723Q901.7222314498099 361.5715064743984 911.8473294642683 347.0875342181942Q921.9919739999903 332.5840154407268 938.4110518612742 306.93897954310216L938.4110518612742 306.93897954310216Q933.6612471942599 306.6653282454141 929.654210335256 306.567595639097Q925.6276269549888 306.4698630327798 922.1874392126244 306.4698630327798L922.1874392126244 306.4698630327798Q916.8316923864438 306.4698630327798 913.0787603038646 306.93897954310216Q909.3453747425489 307.427642574688 906.5306756806144 308.913178190709Q903.6964300974166 310.37916728546645 901.5072197159121 313.13522678361056Q899.2984628131442 315.87173976049127 897.0310663465857 320.34789312981746L897.0310663465857 320.34789312981746L895.3305189966673 319.4487531516996ZM1031.7261443729049 300.3518018773252L1032.5470982659692 301.72005836576545L1003.2859559346095 377.5801073891502Q1001.4290364145833 382.4667377050086 1000.0803264474064 385.63327414968484Q998.751163001493 388.79981059436096 996.9528830452571 392.20090529419844Q995.1741496102845 395.6019999940358 993.4931487816293 397.73257081175Q991.7926014317106 399.8631416294642 989.5642980076792 401.60278202190983Q987.3359945836479 403.3619689356188 984.7167607343479 404.31974847752707L984.7167607343479 404.31974847752707Q973.7902553480885 404.73022542405914 965.5611698961832 396.8920703974224L965.5611698961832 396.8920703974224Q969.255462414972 392.3572774643058 975.8621866020126 389.1321014558394L975.8621866020126 389.1321014558394L976.6831404950767 389.95305534890355Q979.4391999932207 396.3447678020463 985.5572611486755 399.15946686398064L985.5572611486755 399.15946686398064Q988.5087858594538 396.7552447485784 991.6362292616031 391.2235792310267Q994.7636726637525 385.6919137134751 999.3571051606593 373.2603261899315L999.3571051606593 373.2603261899315L974.9044070601042 315.4026232501688Q972.9693014550244 310.5159929343105 970.6041723821489 308.38542211659626Q968.2390433092735 306.25485129888204 965.7175420662907 306.3330373839358Q963.2155873445711 306.39167694772607 959.9904113361047 306.80215389425814L959.9904113361047 306.80215389425814L959.2280970068307 305.4338974058178Q970.7800910735198 299.667673633105 979.497839557011 299.667673633105L979.497839557011 299.667673633105L1000.1780590537235 350.0390589289727Q1001.5658620634274 353.3228745012295 1003.4227815834535 362.68565818641406L1003.4227815834535 362.68565818641406L1004.5760263379962 362.68565818641406Q1007.8793884315163 351.7591528001548 1007.95757451657 351.54414106625705L1007.95757451657 351.54414106625705L1023.2820471871017 307.64265430858586Q1024.1616406439562 305.16024610812974 1021.2101159331778 304.10473395990437Q1018.2585912223994 303.0296752904155 1012.2773557157888 303.5769778857916L1012.2773557157888 303.5769778857916L1011.8668787692566 301.8568840146096Q1017.7112886270232 300.68409273880354 1031.7261443729049 300.3518018773252L1031.7261443729049 300.3518018773252Z " fill="black" transform="matrix(0.8474189893563717,0,0,0.8474189893563717,0,14.931978329549594)"/></g></svg>